<svg xmlns="http://www.w3.org/2000/svg" viewBox="0 0 1200 880" width="1200" height="880">
<defs>
<linearGradient id="g6" x1="0" y1="0" x2="1" y2="1">
<stop offset="0" stop-color="#4c1d95"/><stop offset="1" stop-color="#a855f7"/>
</linearGradient>
<radialGradient id="glow6" cx="0.5" cy="0.5" r="0.5">
<stop offset="0" stop-color="#a855f7" stop-opacity="0.35"/><stop offset="1" stop-color="#a855f7" stop-opacity="0"/>
</radialGradient>
</defs>
<rect width="1200" height="880" fill="#0d0b13"/>
<circle cx="983.9999999999999" cy="132" r="440" fill="url(#glow6)"/>
<circle cx="144" cy="792" r="396" fill="url(#glow6)" opacity="0.6"/><rect x="0" y="0" width="1200" height="52" fill="#14101d"/>
<line x1="0" y1="52" x2="1200" y2="52" stroke="rgba(255,255,255,0.08)" stroke-width="1.5"/>
<circle cx="1170" cy="26" r="6.5" fill="#f87171" opacity="0.8"/>
<circle cx="1148" cy="26" r="6.5" fill="#fbbf24" opacity="0.8"/>
<circle cx="1126" cy="26" r="6.5" fill="#34d399" opacity="0.8"/>
<rect x="30" y="15" width="480" height="22" rx="11" fill="rgba(255,255,255,0.05)" stroke="rgba(255,255,255,0.08)"/>
<circle cx="498" cy="26" r="5" fill="#a855f7" opacity="0.9"/><rect x="990" y="52" width="210" height="828" fill="#14101d"/>
<line x1="990" y1="52" x2="990" y2="880" stroke="rgba(255,255,255,0.08)" stroke-width="1.5"/><rect x="1020" y="84" width="120" height="18" rx="9" fill="url(#g6)" opacity="1"/><rect x="1014" y="140" width="150" height="30" rx="9" fill="rgba(168,85,247,0.18)" opacity="1"/><circle cx="1028" cy="155" r="7" fill="#a855f7"/><rect x="1014" y="192" width="150" height="30" rx="9" fill="rgba(255,255,255,0.04)" opacity="1"/><circle cx="1028" cy="207" r="7" fill="rgba(255,255,255,0.25)"/><rect x="1014" y="244" width="150" height="30" rx="9" fill="rgba(255,255,255,0.04)" opacity="1"/><circle cx="1028" cy="259" r="7" fill="rgba(255,255,255,0.25)"/><rect x="1014" y="296" width="150" height="30" rx="9" fill="rgba(255,255,255,0.04)" opacity="1"/><circle cx="1028" cy="311" r="7" fill="rgba(255,255,255,0.25)"/><rect x="1014" y="348" width="150" height="30" rx="9" fill="rgba(255,255,255,0.04)" opacity="1"/><circle cx="1028" cy="363" r="7" fill="rgba(255,255,255,0.25)"/><rect x="1014" y="400" width="150" height="30" rx="9" fill="rgba(255,255,255,0.04)" opacity="1"/><circle cx="1028" cy="415" r="7" fill="rgba(255,255,255,0.25)"/><rect x="40" y="84" width="290" height="100" rx="14" fill="#14101d" stroke="rgba(255,255,255,0.08)"/><rect x="222" y="104" width="90" height="12" rx="6" fill="rgba(255,255,255,0.25)" opacity="1"/><rect x="192" y="132" width="120" height="24" rx="8" fill="rgba(255,255,255,0.7)" opacity="1"/><rect x="350" y="84" width="290" height="100" rx="14" fill="#14101d" stroke="rgba(255,255,255,0.08)"/><rect x="532" y="104" width="90" height="12" rx="6" fill="rgba(255,255,255,0.25)" opacity="1"/><rect x="502" y="132" width="120" height="24" rx="8" fill="url(#g6)" opacity="1"/><rect x="660" y="84" width="290" height="100" rx="14" fill="#14101d" stroke="rgba(255,255,255,0.08)"/><rect x="842" y="104" width="90" height="12" rx="6" fill="rgba(255,255,255,0.25)" opacity="1"/><rect x="812" y="132" width="120" height="24" rx="8" fill="rgba(255,255,255,0.7)" opacity="1"/><rect x="40" y="208" width="910" height="552" rx="16" fill="#14101d" stroke="rgba(255,255,255,0.08)"/><polyline points="70,710 155,546.5258339439309 240,538.4694029656357 325,672.0006397378329 410,453.4290488379087 495,499.50204386607356 580,608.101050822044 665,358.39986070422447 750,485.07594264540194 835,520.914141179473 920,268.00432870458906 " fill="none" stroke="url(#g6)" stroke-width="5" stroke-linecap="round" stroke-linejoin="round"/><rect x="70" y="720" width="26" height="18" rx="5" fill="#a855f7" opacity="0.25"/><rect x="188.57142857142856" y="720" width="26" height="18" rx="5" fill="#a855f7" opacity="0.35"/><rect x="307.1428571428571" y="720" width="26" height="18" rx="5" fill="#a855f7" opacity="0.45"/><rect x="425.7142857142857" y="720" width="26" height="18" rx="5" fill="#a855f7" opacity="0.55"/><rect x="544.2857142857142" y="720" width="26" height="18" rx="5" fill="#a855f7" opacity="0.65"/><rect x="662.8571428571429" y="720" width="26" height="18" rx="5" fill="#a855f7" opacity="0.75"/><rect x="781.4285714285714" y="720" width="26" height="18" rx="5" fill="#a855f7" opacity="0.8500000000000001"/><rect x="40" y="788" width="546" height="14" rx="7" fill="rgba(255,255,255,0.15)" opacity="1"/><rect x="40" y="816" width="364" height="14" rx="7" fill="rgba(255,255,255,0.09)" opacity="1"/></svg>